<svg fill="none" height="915" viewBox="0 0 1313 915" width="1313" xmlns="http://www.w3.org/2000/svg" xmlns:xlink="http://www.w3.org/1999/xlink"><clipPath id="a"><path d="m0 0h1313v915h-1313z"/></clipPath><g clip-path="url(#a)"><g opacity=".1"><circle cx="314.5" cy="572.5" fill="#fff" r="10.5"/><path d="m38.5332 415.665c.3495-2.283 3.0392-3.332 4.8414-1.887l13.1066 10.503c1.8021 1.444 1.3651 4.297-.7866 5.136l-15.6491 6.099c-2.1517.839-4.4044-.967-4.0548-3.249z" fill="#fff"/><path d="m35.8656 585.001c2.2983-.226 3.9795 2.121 3.0261 4.225l-6.9335 15.297c-.9534 2.104-3.8263 2.386-5.1712.509l-9.7814-13.654c-1.345-1.877-.1533-4.506 2.145-4.732z" fill="#fff"/><path d="m33.3359 587.879c1.5322-.15 2.653 1.414 2.0174 2.816l-4.6224 10.199c-.6356 1.402-2.5508 1.59-3.4475.339l-6.5209-9.103c-.8966-1.251-.1022-3.004 1.4301-3.155z" fill="#273445"/><rect fill="#fff" height="20.9293" rx="3" transform="matrix(.50554293 .86280145 -.86280145 .50554293 228.421674 39.416251)" width="20.9293" x="79.8212" y="219"/><rect fill="#fff" height="20.9293" rx="3" transform="matrix(.78729028 .61658253 -.61658253 .78729028 202.726347 -70.855682)" width="20.9293" x="204.058" y="258.394"/><rect fill="#273445" height="16.7434" rx="3" transform="matrix(.78729028 .61658253 -.61658253 .78729028 204.613804 -70.450861)" width="16.7434" x="204.415" y="261.332"/><path d="m173.779 617.749c1.109 2.026-.39 4.493-2.699 4.441l-16.791-.378c-2.309-.052-3.696-2.584-2.497-4.558l8.724-14.352c1.199-1.974 4.085-1.909 5.195.117z" fill="#fff"/><circle cx="312.5" cy="417.5" r="9" stroke="#fff" stroke-width="3"/><path d="m399.563 448.82c.35-2.283 3.04-3.331 4.842-1.887l13.106 10.503c1.802 1.444 1.365 4.297-.786 5.136l-15.649 6.099c-2.152.839-4.405-.966-4.055-3.249z" fill="#fff"/><rect fill="#fff" height="20.9293" rx="3" transform="matrix(.50554293 .86280145 -.86280145 .50554293 435.542456 -255.686566)" width="20.9293" x="440.851" y="252.156"/><path d="m529.577 580.077c1.109 2.025-.39 4.492-2.699 4.44l-16.791-.378c-2.309-.052-3.696-2.584-2.497-4.558l8.724-14.352c1.199-1.974 4.085-1.909 5.195.117z" fill="#fff"/><rect fill="#fff" height="20.9293" rx="3" transform="matrix(-.92576504 -.37809932 .37809932 -.92576504 253.471744 1492.993934)" width="20.9293" x="273.301" y="721.614"/><path d="m443.958 698.653c.349-2.283 3.039-3.331 4.841-1.887l13.107 10.503c1.802 1.444 1.365 4.297-.787 5.136l-15.649 6.099c-2.152.839-4.404-.966-4.055-3.249z" fill="#fff"/><rect fill="#fff" height="20.9293" rx="3" transform="matrix(.78729028 .61658253 -.61658253 .78729028 608.455045 -199.735104)" width="20.9293" x="593.714" y="781.998"/><rect fill="#273445" height="16.7434" rx="3" transform="matrix(.78729028 .61658253 -.61658253 .78729028 610.342715 -199.330899)" width="16.7434" x="594.072" y="784.936"/><rect fill="#fff" height="20.9293" rx="3" transform="matrix(-.99993545 -.01136185 .01136185 -.99993545 161.372766 1404.872776)" width="20.9293" x="84.677" y="701.978"/><rect fill="#273445" height="16.7434" rx="3" transform="matrix(-.99993545 -.01136185 .01136185 -.99993545 157.258953 1400.615405)" width="16.7434" x="82.608" y="699.861"/><rect fill="#fff" height="20.9293" rx="3" transform="matrix(.72877266 .68475573 -.68475573 .72877266 584.886218 160.611513)" width="20.9293" x="89.6987" y="818.624"/><rect fill="#fff" height="20.9293" rx="3" transform="matrix(.92944973 .36894877 -.36894877 .92944973 319.364752 -47.547779)" width="20.9293" x="284.01" y="811.299"/><rect fill="#273445" height="16.7434" rx="3" transform="matrix(.92944973 .36894877 -.36894877 .92944973 320.449942 -47.78887)" width="16.7434" x="285.183" y="814.016"/><g fill="#fff"><circle cx="976.084" cy="788.63" r="10.4646" transform="matrix(-.978624 .20565765 -.20565765 -.978624 2093.49102 1359.663102)"/><path d="m861.987 927.834c.128 2.306-2.289 3.885-4.35 2.843l-14.986-7.583c-2.061-1.043-2.22-3.925-.286-5.188l14.06-9.188c1.933-1.263 4.509.041 4.636 2.346z"/><path d="m752.658 834.235c-1.502-1.754-.543-4.477 1.728-4.901l16.51-3.083c2.27-.424 4.148 1.769 3.38 3.947l-5.585 15.84c-.768 2.178-3.606 2.707-5.108.953z"/><rect height="20.9293" rx="3" transform="matrix(.98373427 .17962984 -.17962984 .98373427 139.969354 -176.391399)" width="20.9293" x="1043.97" y="684.677"/><circle cx="698.896" cy="483.591" r="10.4646" transform="matrix(-.978624 .20565765 -.20565765 -.978624 1482.306587 813.111449)"/><path d="m823.05 692.092c.127 2.306-2.29 3.885-4.35 2.842l-14.987-7.583c-2.06-1.042-2.22-3.925-.286-5.188l14.06-9.187c1.933-1.263 4.509.04 4.636 2.346z"/><rect height="20.9293" rx="3" transform="matrix(-.89726608 -.44149019 .44149019 -.89726608 995.043655 1565.540758)" width="20.9293" x="679.671" y="666.998"/></g><rect fill="#273445" height="16.7434" rx="3" transform="matrix(-.89726608 -.44149019 .44149019 -.89726608 994.470719 1559.803437)" width="16.7434" x="678.717" y="664.196"/><path d="m840.561 318.328c-1.502-1.754-.543-4.477 1.728-4.9l16.51-3.084c2.27-.424 4.148 1.769 3.38 3.947l-5.585 15.84c-.768 2.178-3.606 2.708-5.108.954z" fill="#fff"/><rect fill="#fff" height="20.9293" rx="3" transform="matrix(.98373427 .17962984 -.17962984 .98373427 59.411401 -105.751189)" width="20.9293" x="613.635" y="275.178"/><path d="m947.684 234.824c2.305.141 3.593 2.725 2.318 4.651l-9.274 14.003c-1.275 1.925-4.157 1.748-5.187-.319l-7.49-15.033c-1.03-2.067.564-4.473 2.869-4.332z" fill="#fff"/><path d="m944.73 237.263c1.537.095 2.395 1.817 1.545 3.101l-6.183 9.335c-.85 1.284-2.771 1.166-3.457-.212l-4.994-10.022c-.687-1.378.376-2.982 1.913-2.888z" fill="#273445"/><rect fill="#fff" height="20.9293" rx="3" transform="matrix(-.98545836 -.16991712 .16991712 -.98545836 1702.276116 1164.068152)" width="20.9293" x="900.949" y="509.193"/><rect fill="#273445" height="16.7434" rx="3" transform="matrix(-.98545836 -.16991712 .16991712 -.98545836 1699.297798 1158.977266)" width="16.7434" x="899.242" y="506.775"/><circle cx="1073.55" cy="589.303" fill="#fff" r="10.4646" transform="matrix(.93709874 -.34906439 .34906439 .93709874 -138.177047 411.805982)"/><circle cx="1021.11" cy="433.614" r="8.96464" stroke="#fff" stroke-width="3" transform="matrix(.93709874 -.34906439 .34906439 .93709874 -87.130103 383.708011)"/><path d="m1133.56 378.947c-.47-2.262 1.68-4.183 3.87-3.459l15.95 5.268c2.2.724 2.78 3.55 1.06 5.087l-12.54 11.178c-1.72 1.537-4.46.632-4.93-1.629z" fill="#fff"/><rect fill="#fff" height="20.9293" rx="3" transform="matrix(.77491691 .63206312 -.63206312 .77491691 417.606186 -732.591461)" width="20.9293" x="1237.41" y="220.051"/><path d="m1279.36 466.107c1.75 1.511 1.2 4.346-.98 5.103l-15.87 5.507c-2.18.757-4.36-1.131-3.93-3.399l3.17-16.495c.43-2.268 3.16-3.215 4.91-1.704z" fill="#fff"/><rect fill="#fff" height="20.9293" rx="3" transform="matrix(-.99951421 -.03116653 .03116653 -.99951421 2531.359859 1682.174439)" width="20.9293" x="1278.79" y="821.359"/><path d="m1184.77 660.582c-.47-2.261 1.69-4.183 3.88-3.458l15.95 5.267c2.19.724 2.78 3.551 1.05 5.088l-12.53 11.178c-1.73 1.537-4.47.631-4.94-1.63z" fill="#fff"/><rect fill="#fff" height="20.9293" rx="3" transform="matrix(.99977306 .0213031 -.0213031 .99977306 18.429962 -23.984792)" width="20.9293" x="1134.97" y="853.04"/><rect fill="#273445" height="16.7434" rx="3" transform="matrix(.99977306 .0213031 -.0213031 .99977306 18.475952 -24.027978)" width="16.7434" x="1137.02" y="855.177"/></g><g opacity=".1"><rect fill="#fff" height="20.9293" rx="3" transform="matrix(-.78729028 -.61658253 .61658253 -.78729028 2128.736196 997.339141)" width="20.9293" x="1236.4" y="131.482"/><rect fill="#273445" height="16.7434" rx="3" transform="matrix(-.78729028 -.61658253 .61658253 -.78729028 2129.922164 991.872279)" width="16.7434" x="1236.05" y="128.544"/><g fill="#fff"><rect height="20.9293" rx="3" transform="matrix(-.50553691 -.86280498 .86280498 -.50553691 1386.122741 1069.810167)" width="20.9293" x="999.609" y="137.72"/><path d="m599.9 71.548c1.502 1.7541.542 4.4765-1.728 4.9005l-16.51 3.0831c-2.271.4239-4.148-1.7686-3.38-3.9466l5.585-15.8399c.768-2.1779 3.605-2.7078 5.108-.9538z"/><rect height="20.9293" rx="3" transform="matrix(-.9837349 -.17962641 .17962641 -.9837349 1619.600802 376.050211)" width="20.9293" x="826.826" y="114.698"/><path d="m492.776 155.052c-2.305-.142-3.592-2.726-2.317-4.651l9.274-14.003c1.275-1.926 4.156-1.749 5.186.318l7.49 15.033c1.03 2.067-.564 4.474-2.869 4.332z"/></g><path d="m495.731 152.612c-1.537-.094-2.395-1.817-1.545-3.1l6.182-9.336c.85-1.284 2.771-1.166 3.458.212l4.993 10.022c.687 1.378-.376 2.983-1.912 2.888z" fill="#273445"/><circle cx="11.1115" cy="41.1738" fill="#fff" r="10.4646" transform="matrix(.98885503 -.14888161 .14888161 .98885503 -6.006184 2.113179)"/><path d="m306.904 10.9289c.469 2.2613-1.686 4.1825-3.878 3.4583l-15.949-5.26724c-2.193-.72424-2.779-3.55077-1.056-5.08776l12.536-11.17808c1.724-1.53698 4.465-.63168 4.934 1.62954z" fill="#fff"/><rect fill="#fff" height="20.9293" rx="3" transform="matrix(-.77492243 -.63205635 .63205635 -.77492243 253.059029 429.765244)" width="20.9293" x="203.05" y="169.825"/></g></g></svg>