<?xml version="1.0" encoding="utf-8"?>
<!-- Generator: Adobe Illustrator 21.1.0, SVG Export Plug-In . SVG Version: 6.00 Build 0)  -->
<svg version="1.1" id="Layer_1" xmlns="http://www.w3.org/2000/svg" xmlns:xlink="http://www.w3.org/1999/xlink" x="0px" y="0px"
	 viewBox="0 0 515 443" style="enable-background:new 0 0 515 443;" xml:space="preserve">
<style type="text/css">
	.st0{fill:#59273B;}
	.st1{fill:#3D1B29;}
	.st2{fill:#412849;}
	.st3{fill:#67566D;}
	.st4{fill:#AB9BB2;}
	.st5{fill:#8D8293;}
	.st6{fill:#BDC2F2;}
	.st7{fill:#7D67E8;}
</style>
<path class="st0" d="M334,295c4.3-6.8-243,44-243,44c0,5.9-13.5,73.4-16.5,104.8h378C410.1,408.4,330,301.4,334,295z"/>
<path class="st1" d="M379,381c0,0-73-28-82-40s27-35,30-32s34,40,36,42S379,381,379,381z"/>
<path class="st1" d="M338.1,326c-3.4-0.5-5.9-0.2-7.6,0.8C336.4,326.5,339.4,326.2,338.1,326z"/>
<path class="st1" d="M330.5,326.8C299,328.6,184,332,184,332c0,9.6,0,88.6,1,111.8h232.3C380.1,419.4,313.6,337,330.5,326.8z"/>
<path class="st2" d="M369,334c11,7-39-4-48,1s-5.8,20-14.9,17c-9.1-3-22.7,5-26.3,6c-3.6,1-13.6-4-24.5-7c-4-1.1-8.7-0.6-13.4,0.5
	c-8.1,2-16.2,5.8-20.2,6.5c-1.1,0.2-2.7,0-4.4-0.5c-8.2-2-21.6-9.2-24.6-7.5c-0.7,0.4-2.5,1-4.8,1.8c-9.1,2.9-27.6,7.6-33.4,9.2
	c-0.8,0.2-1.6,0.3-2.4,0.4c-6.8,0.7-14.8-2.7-22.1-4.4c-8.2-2-19.1,2-24.5,6c-5.5,4-35.4-14-36.3-26s20-83,42.7-100
	c14.3-10.7,44.6-17.1,67-20.9c5.6-12.2,11.4-33.9,8.3-43.1c-4-12,37,19,37,23c0,1.5-5,14,3,14s62.6,2.5,86,12
	C340,233,358,327,369,334z"/>
<path class="st3" d="M280.1,318.3c0.1,13.3-1,26.5-1.3,39.8c0.3,0,0.6,0,0.9-0.1c2.9-0.8,12.4-6.2,20.7-6.6
	C290,343.4,282.8,331.2,280.1,318.3z"/>
<path class="st3" d="M206.9,317.5c1.4,13.6,6.1,26.7,10.3,40c1.8,0.4,3.3,0.6,4.4,0.5c4-0.6,12.1-4.5,20.2-6.5
	C227.9,343,214.4,331.7,206.9,317.5z"/>
<path class="st3" d="M150,314.5c0.1,15.7,0.5,31.2,1.9,46.9c0.8-0.1,1.6-0.2,2.4-0.4c5.8-1.6,24.2-6.4,33.4-9.2
	C169.9,345.8,158.3,331.2,150,314.5z"/>
<path class="st3" d="M100.8,363.3c2,0.4,3.6,0.4,4.6-0.3c4.8-3.5,13.9-7.1,21.6-6.5c-12.9-14.3-24.2-30.4-31.3-48.2
	C95.8,326.6,98.2,345,100.8,363.3z"/>
<path class="st3" d="M369,334c-11-7-29-101-56-112c-3.2-1.3-7-2.5-11.2-3.5C337,247.2,344.9,295.6,359,337c0.4,1.3,0.9,2.6,1.4,3.9
	C368.2,339,373.1,336.6,369,334z"/>
<path class="st3" d="M339.6,326.3c-4.3,0.8-13.4-0.5-20.8-2.7c-4.2,3.2-10,7.7-10.8,9.4c-1,2,1,0,0-15c-3-5-3-52-3-52s7,24,10,37
	S346.8,325,339.6,326.3z"/>
<g>
	<path class="st4" d="M129.1,157.4c-4.8-10.3,19.1-47.4,56.4-58.7s80.1-31.7,89.6-25.4s42.3,29.2,34.7,44.4
		c-7.6,15.2-38.1,47.3-43.1,48c-5.1,0.6-0.7,17.1,7.2,37.6s28.3,47.5,24.5,51.9c-3.8,4.4-48.4,25.5-55.1,24.5
		c-6.6-1-25.4-80.1-32.7-86.1S139.8,180.2,129.1,157.4z"/>
	<path class="st5" d="M246.8,258.5c-14.8-6.7-13.2-30.4-18.9-47.5c-5-12-7.5-29.1-18.3-32.9c-26.8-9.2-54.6-13.8-81.2-23
		c0.1,0.8,0.3,1.6,0.6,2.2c10.7,22.8,74.2,30.2,81.5,36.3s26,85.1,32.7,86.1c6.6,1,51.3-20.1,55.1-24.5c0.9-1,0.5-3.2-0.7-6.1
		C283.7,262,262.1,265.5,246.8,258.5z"/>
	<path class="st6" d="M188.9,146.9c6.6-2.2,32.5-10.1,32.5-10.1s1,6.2-8.1,10.4C204,151.4,188.9,146.9,188.9,146.9z"/>
	<path class="st6" d="M249.3,127.3c6.5-2.7,31.6-12.7,31.6-12.7s1.5,6-7.3,10.9S249.3,127.3,249.3,127.3z"/>
	<ellipse transform="matrix(0.9495 -0.3139 0.3139 0.9495 -34.2578 73.922)" class="st7" cx="212.4" cy="143.3" rx="2.5" ry="4"/>
	<ellipse transform="matrix(0.9495 -0.3139 0.3139 0.9495 -24.6491 91.5201)" class="st7" cx="271.9" cy="122.3" rx="2.5" ry="4"/>
	<path class="st0" d="M254.3,237.1c0,0,11.7-8.1,14.3-9.3c2.6-1.2,10.7-1.9,10.7-1.9s-10-9.6-13.7-8.3
		C262,218.8,256.3,230.6,254.3,237.1z"/>
	<path class="st0" d="M235.1,134.6c-6.3-4-32.6-24.1-40.1-23.8c-7.6,0.3-20.4,11.3-37.5,2.8s-55.7-44.8-58.3-56.5
		s-5.2,40.6,6.7,50.2s53.7,50.7,61.5,46.3c7.7-4.4,29.7-18.8,36.2-18.9S241.5,138.7,235.1,134.6z"/>
	<path class="st0" d="M238.8,132.5c1.7-6.4,6.7-35.4,11.5-39c4.7-3.5,18.4-1.2,24.3-16.5s9.5-63.5,4.8-74s25,29.6,23,43.2
		c-2,13.6-5.2,67.1-12.3,67.5c-7.1,0.4-28.1-0.1-32.1,3.1C254,120.1,237.1,138.9,238.8,132.5z"/>
	<path class="st0" d="M228.4,124.7c-0.8-2.3-1.9-13.5-3-17c-1.1-3.5-28.9-21.3-30-20.9c-1.2,0.4,7.3,18.1,9.2,20.1
		C206.5,108.8,228.4,124.7,228.4,124.7z"/>
	<path class="st0" d="M234.8,120.5c-0.8-2.3-6.3-12-7.4-15.5c-1.1-3.5,8.8-33.6,9.8-33.9c1.1-0.3,5,18.8,4.8,21.5
		S234.8,120.5,234.8,120.5z"/>
	<path class="st2" d="M240.7,147.9c3.4-1.9,54.1,4.2,61.4,8.7c7.4,4.5-41.9,15-47.5,20.3S235.8,150.7,240.7,147.9z"/>
</g>
<g>
	<path class="st2" d="M436.9,158.4c0.9-2.5,8.4-7.9,9.3-10.4c0.9-2.5,4.4-11.2,2.4-9.2C446.6,140.7,436.9,158.4,436.9,158.4z"/>
	<path class="st2" d="M460.5,143.3c0.4,1.2-0.1-20.6-0.9-22s-2.1,5.5-2.4,6.6C456.9,129.1,459,139.5,460.5,143.3z"/>
	<path class="st5" d="M419.2,174.1c3.2-2.3,20-14.9,23.1-13.7c3.1,1.2,10.6-15.1,12.7-15.1c2.1,0,0.2-17.6,2.3-16.4
		c2.1,1.2,5,17.7,4.9,20.1c0,2.4-10.6,16.3-10.6,16.3s-4.3,9.3-7.4,10.5C441.1,176.9,419.2,174.1,419.2,174.1z"/>
	<path class="st5" d="M403.4,166.5c0,0,20.4-3.8,23.6-6.7s17.3-15.6,18.9-17c1.6-1.4-4.1,12.4-8.8,16.6s-23.1,16.4-25.3,16.9
		c-2.2,0.5-17.9,0.1-19.3-0.1C391,176.2,403.4,166.5,403.4,166.5z"/>
	<path class="st4" d="M365.2,145.5c0,0-18.2,21.6-19.8,26.7c-1.6,5,25.1,12.6,29.7,15.7c5,3.4-1,62.5-4.1,69.6
		c0,0,13.8-15.3,16.8-17c3-1.6,0.7-47.3,5.2-50.6c4.5-3.3,56.9-5.8,62.9-5.7c6,0.1,31.9-38.3,33.5-43.3c1.6-5-18.1,13.2-18.1,13.2
		c-2.5-1.5-16.5,12-16.6,13.2c-0.3,2.3-23-1.2-22.5,3c0,0-35.9-0.6-40.4-0.7c-4.5-0.1-13.4-1.9-16.4-0.3c-3,1.6-11.9-1.9-13.4-1.9
		S368,157.4,365.2,145.5z"/>
	<path class="st2" d="M357.1,156.2c0,0,8.8-19.8,11.3-21.6c2.5-1.8-3.5,12.4-5.2,15.6C361.5,153.3,357.1,156.2,357.1,156.2z"/>
	<path class="st2" d="M480.3,156.6c2.4-1.1,14.7-20.3,15.6-25.2c1-4.9-9,8-9.7,11.3C485.6,146,480.3,156.6,480.3,156.6z"/>
</g>
<path class="st1" d="M390.8,205.3c0,0-16.4,21.7-17.6,23.6c-1.2,1.9-17,122.4-17,122.4l22.9,29.2C379.2,380.5,393,214.3,390.8,205.3
	z"/>
</svg>
