<?xml version="1.0" encoding="utf-8"?>
<!-- Generator: Adobe Illustrator 21.1.0, SVG Export Plug-In . SVG Version: 6.00 Build 0)  -->
<svg version="1.1" id="Layer_1" xmlns="http://www.w3.org/2000/svg" xmlns:xlink="http://www.w3.org/1999/xlink" x="0px" y="0px"
	 viewBox="0 0 515 443" style="enable-background:new 0 0 515 443;" xml:space="preserve">
<style type="text/css">
	.st0{fill:#59273B;}
	.st1{fill:#3D1B29;}
	.st2{fill:#412849;}
	.st3{fill:#67566D;}
	.st4{fill:#AB9BB2;}
	.st5{fill:#8D8293;}
	.st6{fill:#BDC2F2;}
	.st7{fill:#7D67E8;}
</style>
<path class="st0" d="M334,295c-4-7-243,44-243,44c0,5.9-13.4,72.9-16.5,104.4H365C359.5,404.1,337.3,300.8,334,295z"/>
<path class="st1" d="M283,326c-1-5-99,6-99,6c0,9.5,0,87.8,0.6,111.4h103.5C288.9,414.5,283.8,330.2,283,326z"/>
<path class="st2" d="M357,340c0,4-26.4,16-30,17c-3.6,1-11.8-2-20.9-5c-9.1-3-22.7,5-26.3,6c-3.6,1-13.6-4-24.5-7
	c-4-1.1-8.7-0.6-13.4,0.5c-8.1,2-16.2,5.8-20.2,6.5c-1.1,0.2-2.7,0-4.4-0.5c-8.2-2-21.6-9.2-24.6-7.5c-0.7,0.4-2.5,1-4.8,1.8
	c-9.1,2.9-27.6,7.6-33.4,9.2c-0.8,0.2-1.6,0.3-2.4,0.4c-6.8,0.7-14.8-2.7-22.1-4.4c-8.2-2-19.1,2-24.5,6c-5.5,4-35.4-14-36.3-26
	s20-83,42.7-100c14.3-10.7,44.6-17.1,67-20.9c5.6-12.2,11.4-33.9,8.3-43.1c-4-12,37,19,37,23c0,1.5-3.6,7.6-8.2,14.5
	c26.4-2.3,73.8,2,97.2,11.5C340,233,357,336,357,340z"/>
<path class="st3" d="M280.1,318.3c0.1,13.3-1,26.5-1.3,39.8c0.3,0,0.6,0,0.9-0.1c2.9-0.8,12.4-6.2,20.7-6.6
	C290,343.4,282.8,331.2,280.1,318.3z"/>
<path class="st3" d="M206.9,317.5c1.4,13.6,6.1,26.7,10.3,40c1.8,0.4,3.3,0.6,4.4,0.5c4-0.6,12.1-4.5,20.2-6.5
	C227.9,343,214.4,331.7,206.9,317.5z"/>
<path class="st3" d="M150,314.5c0.1,15.7,0.5,31.2,1.9,46.9c0.8-0.1,1.6-0.2,2.4-0.4c5.8-1.6,24.2-6.4,33.4-9.2
	C169.9,345.8,158.3,331.2,150,314.5z"/>
<path class="st3" d="M100.8,363.3c2,0.4,3.6,0.4,4.6-0.3c4.8-3.5,13.9-7.1,21.6-6.5c-12.9-14.3-24.2-30.4-31.3-48.2
	C95.8,326.6,98.2,345,100.8,363.3z"/>
<path class="st3" d="M350,335c-18.2-10.1-27.8-27.5-36.7-45.4c6.2,22.3,10.5,44.8,13.4,67.5c0.1,0,0.2,0,0.2,0c3.6-1,30-13,30-17
	c0-0.4-0.1-1.6-0.4-3.5C354.3,336.5,352,336,350,335z"/>
<path class="st4" d="M138,135c-1.4-11.3,33-39,72-38s86-5,93,4s31,41,19,53s-51,33-56,32s-6,16-5,38s12,54,7,57s-54,9-60,6
	s1-84-4-92S141,160,138,135z"/>
<path class="st5" d="M218,268c-12-11-3-33-3-51c-1-13,2-30-7-37c-22.6-17.1-47.5-30.2-69.8-47.3c-0.2,0.8-0.2,1.6-0.2,2.3
	c3,25,61,52,66,60s-2,89,4,92s55-3,60-6c1.1-0.7,1.4-2.8,1.2-6C251.9,282.9,230.3,279.5,218,268z"/>
<path class="st6" d="M198,143.8c7,0,34,1,34,1s-1,11-11,13S198,143.8,198,143.8z"/>
<path class="st6" d="M261.5,144.2c7-0.6,34-1.7,34-1.7s-0.1,11-9.9,13.8S261.5,144.2,261.5,144.2z"/>
<ellipse class="st7" cx="221.5" cy="151" rx="2.5" ry="4"/>
<ellipse class="st7" cx="285.5" cy="150" rx="2.5" ry="4"/>
<path class="st0" d="M235,250c0,0,10-10.2,12-10.2s9,7.4,9,7.4s-5-12.2-8-12.2S238,244.5,235,250z"/>
<path class="st0" d="M245.8,146.7c-4.8-5.8-23.4-33.1-30.6-35.2c-7.3-2.1-22.9,4.3-36.5-9.1S139.8,42.4,141,30.5
	s-17.7,36.9-9.4,49.8s35.1,65,43.8,63.2c8.7-1.8,34.1-8.5,40.3-6.6C222,138.9,250.5,152.5,245.8,146.7z"/>
<path class="st0" d="M249.9,145.8c3.7-5.6,18.2-32.1,24-34s18.5,4.7,29.2-8.3s30.1-58.3,28.9-70.1c-1.2-11.7,14.9,36.6,8.5,49.1
	c-6.5,12.5-27,63.3-34.1,61.4c-7.1-1.9-27.6-9-32.5-7.2C269,138.5,246.2,151.4,249.9,145.8z"/>
<path class="st0" d="M242.6,135.2c0-2.4,2.4-13.4,2.4-17.1s-20.7-29.3-21.9-29.3s1.2,19.5,2.4,21.9
	C226.7,113.2,242.6,135.2,242.6,135.2z"/>
<path class="st0" d="M249.9,133.2c0-2.4-2.2-13.4-2.2-17c0-3.6,18.9-29.2,20-29.2s-1.1,19.4-2.2,21.9
	C264.4,111.3,249.9,133.2,249.9,133.2z"/>
<path class="st2" d="M247,161c3.8-0.8,50.1,20.9,55.6,27.6c5.6,6.6-44.5,1.1-51.4,4.4C244.2,196.3,241.4,162.1,247,161z"/>
<path class="st3" d="M339,281c2.7,8.9,6.4,17.4,11.7,25c-7.3-32.3-20.4-77-37.7-84c-4.3-1.8-9.4-3.3-15.1-4.7
	C318.4,232.3,332.1,255.9,339,281z"/>
</svg>
