<?xml version="1.0" encoding="utf-8"?>
<!-- Generator: Adobe Illustrator 21.1.0, SVG Export Plug-In . SVG Version: 6.00 Build 0)  -->
<svg version="1.1" id="Layer_1" xmlns="http://www.w3.org/2000/svg" xmlns:xlink="http://www.w3.org/1999/xlink" x="0px" y="0px"
	 viewBox="0 0 515 443" style="enable-background:new 0 0 515 443;" xml:space="preserve">
<style type="text/css">
	.st0{fill:#7E8399;}
	.st1{fill:#43444F;}
	.st2{fill:#DADDF2;}
	.st3{fill:#E85888;}
	.st4{fill:#9B3D61;}
	.st5{fill:#D1EDE5;}
	.st6{fill:#7CEDD2;}
</style>
<path class="st0" d="M417.5,128.3l13.5,12c4.5,4,4.9,11,0.9,15.5L299,305.3c-4,4.5-11,4.9-15.5,0.9l-13.5-12c-4.5-4-4.9-11-0.9-15.5
	L402,129.2C406,124.6,413,124.2,417.5,128.3z"/>
<path class="st1" d="M294.9,282.9L294.9,282.9c2.6,6.1-0.3,13.1-6.4,15.7l-21.2,9c-6.1,2.6-13.1-0.3-15.7-6.4l0,0
	c-2.6-6.1,0.3-13.1,6.4-15.7l21.2-9C285.3,273.9,292.4,276.8,294.9,282.9z"/>
<path class="st0" d="M260,342H64c-10,0-18-8.1-18-18v-31c0-10,8.1-18,18-18h196c10,0,18,8.1,18,18v31C278,333.9,269.9,342,260,342z"
	/>
<path class="st2" d="M278,360H46v-67c85.8,45.2,163.1,44.8,232,0V360z"/>
<path class="st1" d="M169,307L169,307c-6.6,0-12-5.4-12-12v-53c0-6.6,5.4-12,12-12h0c6.6,0,12,5.4,12,12v53
	C181,301.6,175.6,307,169,307z"/>
<ellipse transform="matrix(0.8762 -0.482 0.482 0.8762 7.759 85.6594)" class="st3" cx="170.6" cy="27.7" rx="13.5" ry="13.5"/>
<path class="st1" d="M121.7,103.3c0,0,38.8-63.1,43.4-61.2s-29.3,66.4-29.3,66.4L121.7,103.3z"/>
<path class="st2" d="M306.2,205.6l-169.3,50.8c-13,3.9-26.7-3.5-30.7-16.5L74.7,134.7c-3.9-13,3.5-26.7,16.5-30.7l169.3-50.8
	c13-3.9,26.7,3.5,30.7,16.5l31.5,105.1C326.6,188,319.2,201.7,306.2,205.6z"/>
<path class="st0" d="M309.8,204.5l-176.7,53c-11,3.3-23.1-4.6-27-17.6L74.7,134.7c-3.9-13,1.8-26.3,12.8-29.5
	c68.6,116.2,99.8,105.8,235.2,69.8C326.6,188,320.8,201.2,309.8,204.5z"/>
<ellipse transform="matrix(0.9579 -0.2872 0.2872 0.9579 -33.9004 54.539)" class="st3" cx="169" cy="142.8" rx="18" ry="31.5"/>
<ellipse transform="matrix(0.9579 -0.2872 0.2872 0.9579 -22.8477 78.2066)" class="st3" cx="255.2" cy="117" rx="18" ry="31.5"/>
<ellipse transform="matrix(0.8762 -0.482 0.482 0.8762 7.759 85.6594)" class="st1" cx="170.6" cy="27.7" rx="5.5" ry="5.5"/>
<path class="st4" d="M187.7,159.8c-1.4,6.7-4.8,11.7-9.7,13.2c-9.5,2.9-21.3-8.3-26.3-25c-5-16.7-1.3-32.5,8.2-35.3
	C150.1,153.2,176.2,170.4,187.7,159.8z"/>
<path class="st4" d="M273.9,134c-1.4,6.7-4.8,11.7-9.7,13.2c-9.5,2.9-21.3-8.3-26.3-25c-5-16.7-1.3-32.5,8.2-35.3
	C236.4,127.3,262.4,144.6,273.9,134z"/>
<path class="st2" d="M278,357.7c0-9.8-7.9-17.7-17.7-17.7H63.7c-9.8,0-17.7,7.9-17.7,17.7v86.1h232V357.7z"/>
<path class="st0" d="M46,368v75.8h103.3C100.9,427.2,57.9,400.5,46,368z"/>
<path class="st2" d="M417.5,128.3l13.5,12c4.5,4,4.9,11,0.9,15.5c-20.4,1.9-77.8,37.4-162.8,123L402,129.2
	C406,124.6,413,124.2,417.5,128.3z"/>
<path class="st1" d="M429.3,112.4L429.3,112.4c1.8,1.4,2.2,4,0.8,5.9l-12,15.7c-1.4,1.8-4,2.2-5.9,0.8l0,0c-1.8-1.4-2.2-4-0.8-5.9
	l12-15.7C424.9,111.4,427.5,111,429.3,112.4z"/>
<path class="st1" d="M401.6,114.4L401.6,114.4c2.9,0.2,5.2,2.7,5,5.6l-1,16.9c-0.2,2.9-2.7,5.2-5.6,5l0,0c-2.9-0.2-5.2-2.7-5-5.6
	l1-16.9C396.2,116.5,398.7,114.2,401.6,114.4z"/>
<path class="st1" d="M442.9,118.3L442.9,118.3c1.7,1.9,1.6,4.8-0.3,6.6l-15.9,14.5c-1.9,1.7-4.8,1.6-6.6-0.3l0,0
	c-1.7-1.9-1.6-4.8,0.3-6.6l15.9-14.5C438.3,116.3,441.2,116.4,442.9,118.3z"/>
<path class="st1" d="M451.7,130L451.7,130c1.5,2.1,1,5-1,6.5L433.2,149c-2.1,1.5-5,1-6.5-1v0c-1.5-2.1-1-5,1-6.5l17.4-12.6
	C447.2,127.4,450.1,127.9,451.7,130z"/>
<g>
	<path class="st5" d="M215.7,214.4l65.8-20.7c4.8-1.5,7.4-6.6,5.9-11.3l-3-9.5c-1.5-4.8-6.6-7.4-11.3-5.9l-65.8,20.7
		c-4.8,1.5-7.4,6.6-5.9,11.3l3,9.5C205.9,213.2,210.9,215.9,215.7,214.4z"/>
	<path class="st6" d="M273.1,167l-65.8,20.7c-4.8,1.5-7.4,6.6-5.9,11.3l3,9.5c24.8,12.1,40-42.9,83-26.1l-3-9.5
		C282.9,168.2,277.8,165.5,273.1,167z"/>
</g>
<path class="st2" d="M78.6,292c0-6.1-4.9-11-11-11H46.4c-6.1,0-11,4.9-11,11v151.9h43.2V292z"/>
<path class="st0" d="M35.4,292.9v151h21.7C46.8,397.2,37.2,335.3,35.4,292.9z"/>
</svg>
