<?xml version="1.0" encoding="utf-8"?>
<!-- Generator: Adobe Illustrator 21.1.0, SVG Export Plug-In . SVG Version: 6.00 Build 0)  -->
<svg version="1.1" id="Layer_1" xmlns="http://www.w3.org/2000/svg" xmlns:xlink="http://www.w3.org/1999/xlink" x="0px" y="0px"
	 viewBox="0 0 515 443" style="enable-background:new 0 0 515 443;" xml:space="preserve">
<style type="text/css">
	.st0{fill:#7E8399;}
	.st1{fill:#43444F;}
	.st2{fill:#D1EDE5;}
	.st3{fill:#DADDF2;}
	.st4{fill:#E85888;}
	.st5{fill:#7CEDD2;}
	.st6{fill:#9B3D61;}
</style>
<g>
	<path class="st0" d="M305,302c0-6.1-4.9-11-11-11h-18c-6.1,0-11,4.9-11,11v142.5h40V302z"/>
	<path class="st1" d="M290.5,320L290.5,320c-5.1,4.3-12.6,3.7-16.9-1.4l-14.9-17.6c-4.3-5.1-3.7-12.6,1.4-16.9v0
		c5.1-4.3,12.6-3.7,16.9,1.4l14.9,17.6C296.2,308.1,295.6,315.7,290.5,320z"/>
	<circle class="st2" cx="130.5" cy="25.5" r="13.5"/>
	<path class="st1" d="M173.1,104.7c0,0-36.6-64.4-32.7-67.5s44,57.7,44,57.7L173.1,104.7z"/>
	<path class="st0" d="M260,342H64c-10,0-18-8.1-18-18v-31c0-10,8.1-18,18-18h196c10,0,18,8.1,18,18v31C278,333.9,269.9,342,260,342z
		"/>
	<path class="st3" d="M278,360H46v-67c85.8,45.2,163.1,44.8,232,0V360z"/>
	<path class="st1" d="M169,307L169,307c-6.6,0-12-5.4-12-12v-53c0-6.6,5.4-12,12-12h0c6.6,0,12,5.4,12,12v53
		C181,301.6,175.6,307,169,307z"/>
	<path class="st3" d="M306.4,246H129.6c-13.6,0-24.6-11-24.6-24.6V111.6C105,98,116,87,129.6,87h176.8C320,87,331,98,331,111.6
		v109.8C331,235,320,246,306.4,246z"/>
	<path class="st0" d="M310.2,246H125.8c-11.5,0-20.8-11-20.8-24.6V111.6C105,98,114.3,87,125.8,87C158.1,218,191,217,331,221.4
		C331,235,321.7,246,310.2,246z"/>
	<ellipse class="st4" cx="193" cy="146.5" rx="18" ry="31.5"/>
	<ellipse class="st4" cx="283" cy="146.5" rx="18" ry="31.5"/>
	<path class="st2" d="M217,200h69c5,0,9,4,9,9v10c0,5-4,9-9,9h-69c-5,0-9-4-9-9v-10C208,204,212,200,217,200z"/>
	<path class="st5" d="M217,200h69c5,0,9,4,9,9v10c-8-7-71-13-87,0v-10C208,204,212,200,217,200z"/>
	<circle class="st1" cx="130.5" cy="25.5" r="5.5"/>
	<path class="st6" d="M206.1,168.2c-3.3,6.1-7.9,9.8-13.1,9.8c-9.9,0-18-14.1-18-31.5s8.1-31.5,18-31.5C172,151,192,175,206.1,168.2
		z"/>
	<path class="st6" d="M296.1,168.2c-3.3,6.1-7.9,9.8-13.1,9.8c-9.9,0-18-14.1-18-31.5s8.1-31.5,18-31.5C262,151,282,175,296.1,168.2
		z"/>
	<path class="st3" d="M278,357.7c0-9.8-7.9-17.7-17.7-17.7H63.7c-9.8,0-17.7,7.9-17.7,17.7v86.8h232V357.7z"/>
	<path class="st0" d="M46,368v76.5h105.2C102.1,427.9,58,401,46,368z"/>
	<path class="st3" d="M305,302c-3.4,62-10.2,109.3-17.9,142.5H305V302z"/>
	<path class="st3" d="M78.6,292c0-6.1-4.9-11-11-11H46.4c-6.1,0-11,4.9-11,11v152.5h43.2V292z"/>
	<path class="st0" d="M35.4,292.9v151.6h21.8C46.9,397.7,37.2,335.5,35.4,292.9z"/>
</g>
</svg>
