<?xml version="1.0" encoding="utf-8"?>
<!-- Generator: Adobe Illustrator 21.1.0, SVG Export Plug-In . SVG Version: 6.00 Build 0)  -->
<svg version="1.1" id="Layer_1" xmlns="http://www.w3.org/2000/svg" xmlns:xlink="http://www.w3.org/1999/xlink" x="0px" y="0px"
	 viewBox="0 0 515 443" style="enable-background:new 0 0 515 443;" xml:space="preserve">
<style type="text/css">
	.st0{fill:#6B726B;}
	.st1{fill:#445126;}
	.st2{fill:#8F998F;}
	.st3{fill:#6C893E;}
	.st4{fill:#485E2A;}
	.st5{fill:#424C42;}
	.st6{fill:#E4EFE5;}
</style>
<path class="st0" d="M471.2,387.8c-3.5-10.6-10.6-77.7-65.9-131.8c-55.3-54.1-173-91.8-258.9-84.7C88.6,176,34.5,225.6,0.3,268.9
	V443h471.6C472.7,416.6,472.8,392.5,471.2,387.8z"/>
<path class="st1" d="M157,107.7c-15.3,0-57.7,3.5-68.2,27.1c-10.6,23.5,4.7,49.4-24.7,44.7c-29.4-4.7,12.9,15.3,20,10.6
	c7.1-4.7-12.9,20-42.4,21.2c-16.8,0.7-31.7,9.8-41.4,20.4v160.9c7.7,2,14.4,5.1,17.9,10.5c10.6,16.5-5.9-15.3,14.1-34.1
	s27.1-70.6,48.2-49.4c21.2,21.2,10.6,34.1,17.7,0c7.1-34.1,15.3-64.7,29.4-47.1c14.1,17.7,14.1,29.4,23.5,12.9
	c9.4-16.5,30.6-31.8,30.6-31.8L157,107.7z"/>
<path class="st1" d="M464.2,343c0.9,2.2,4.7,4.5,8.5,6.1C466.5,338.4,462.6,339.2,464.2,343z"/>
<path class="st1" d="M420.6,261.9c0.5,0.3,1.5,0.4,2.8,0.4C420.7,261.3,419.5,261.1,420.6,261.9z"/>
<path class="st1" d="M484.2,378.3c-4.1-14.1-8.1-23.4-11.5-29.2c-3.8-1.5-7.6-3.9-8.5-6.1c-1.5-3.8,2.4-4.7,8.5,6.1
	c6.5,2.6,13,2.9,5.6-3.7c-11.8-10.6,2.4-18.8,7.1-31.8c4.7-12.9-11.8-28.2-30.6-37.7c-12.8-6.4-25.5-11.7-31.3-13.7
	c-1.3,0-2.3-0.1-2.8-0.4c-1.1-0.8,0.1-0.5,2.8,0.4c9.1-0.1,33.6-6.3,9-6.3c-28.2,0-3.5-37.7-18.8-63.5
	c-15.3-25.9-50.6-35.3-67.1-38.8c0,0-38.8,100-38.8,111.8c0,11.8,5.9,11.8,16.5,7.1c10.6-4.7,12.9,14.1,7.1,30.6
	c-5.9,16.5,34.1,48.2,25.9,31.8c-8.2-16.5,0-10.6,11.8-17.7c11.8-7.1,16.5,37.7,16.5,63.5c0,25.9,25.9,42.4,21.2,34.1
	c-4.7-8.2,1.2-23.5,10.6-32.9c8-8,19.4,28.9,32,61.1h38.1C490.6,427.3,491.5,403.3,484.2,378.3z"/>
<path class="st2" d="M340,371c-4,8-86,36-100,44c-7.4,4.3-37,17-61,28h168.1C351.8,416.1,347.9,355.2,340,371z"/>
<path class="st2" d="M131,396c-5-21-12.5-66.5-15-56c-4,17-26,43-37,62c-6.3,11-21.7,27.6-32.3,41H132
	C134.1,426.5,133.9,408.2,131,396z"/>
<path class="st3" d="M232,74c7-3,27-19,32-21s31-5,38-2s38,5,26,6s-5,5-14,7s8,9,15,8s22,7,23,9s-15.8,15-15.8,15l-57.7-17.5L232,74
	z"/>
<path class="st4" d="M239.4,83c0,0,11.8-24.7,30.6-22.4s35.3,14.1,41.2,18.8c5.9,4.7,43.5,10.6,47.1,8.2c0,0-7.1,7.1-16.5,4.7
	s-5.9,12.9,3.5,11.8c9.4-1.2,28.2,5.9,30.6,20s-9.4,30.6-1.2,34.1c8.2,3.5,15.3,1.2,15.3,1.2s-11.8,7.1-15.3,5.9s-12.9-7.1-15.3-4.7
	c-2.4,2.4,12.9,31.8,12.9,42.4s-15.3,20-14.1,31.8c1.2,11.8-9.4-2.4-7.1-12.9s-18.8-89.4-18.8-89.4L239.4,83z"/>
<path class="st3" d="M374.7,158.3c-8.2-3.5,3.5-20,1.2-34.1s-21.2-21.2-30.6-20c-1.6,0.2-3-0.1-4.2-0.6c0.8,2.4,2.5,4.5,4.2,5.3
	c8.2,2.4,17.7,4.7,20,12.9c3.3,11.7-3.4,27.6-0.4,39.2c3.5,1.3,7.7,3.7,9.8,4.4c3.5,1.2,15.3-5.9,15.3-5.9S383,161.8,374.7,158.3z"
	/>
<path class="st3" d="M257.1,72.4c23.5,7.1,44.7,11.8,65.9,25.9c5.3,3.3,9.4,1.8,13.7,0.1c-1.2-3.6,0.2-7.2,5.1-5.9
	c9.4,2.4,16.5-4.7,16.5-4.7c-3.5,2.4-41.2-3.5-47.1-8.2c-5.9-4.7-22.4-16.5-41.2-18.8c-8.3-1-15.3,3.2-20.4,8.3
	C251.7,71.1,254.4,72.4,257.1,72.4z"/>
<path class="st2" d="M135.9,148.9c15.3-75.3,108.4-88.3,172.9-56.3s51.1,119.1,41.4,129.1c-9.7,10-48,52.6-46.2,85.8
	c-12.1,15.5-106.5,17.3-111.3,10.1C188,310.5,120.6,224.2,135.9,148.9z"/>
<polygon class="st4" points="335.9,131.2 360.6,157.1 357.1,127.7 339.4,117.1 "/>
<path class="st4" d="M292.4,112.4l42.4-8.2c0,0-17.7-15.3-31.8-20s-30.6-7.1-30.6-7.1l-10.6,11.8L292.4,112.4z"/>
<path class="st4" d="M264.1,111.2c-9.4-1.2-53,7.1-58.8,9.4c-1.3,0.5-3.8,2.3-6.6,4.8c-2.4,4.7-3.6,8.9-1.6,10.4
	c3.5,2.6-4.8,2.6-9.2,0c-7.4,7.9-13.8,16.4-12,18.8c3.5,4.7,22.4,7.1,16.5,17.7s2.4-3.5-7.1-5.9c-9.4-2.4-16.5,2.4-16.5,8.2
	s11.8,21.2,12.9,25.9c0.8,3.2-3.8,11.8-6.5,18.5c1,2.1,2,4.5,3,7.4c3.5,10.6-1.2,24.7-1.2,35.3c0,10.6-5.9-14.1-10.6-10.6
	c-1.8,1.4-5.1-1.2-8.2-5.1c-4.1,13.9-7,32.2-9.4,25.1c-3.5-10.6-24.7-34.1-30.6-44.7c-5.9-10.6,16.5-40,12.9-47.1
	c-3.5-7.1-3.5-17.7-7.1-10.6c-3.5,7.1,8.2,21.2-1.2,12.9s9.4-49.4,9.4-49.4l31.8-29.4c0,0,1.2-16.5,3.5-23.5c4.7-8.2-12.9-20,0.2-12
	c7.6,4.7,23.5-6,32.5-10.7c9-4.6,32.1,16.7,38.4,14c2.7-1.2,6.2-0.4,9.3,0.8c2.6,1,5,2.5,6.4,3.4l0.4,1.5L264.1,111.2z"/>
<path class="st3" d="M150,146.5c3.1,0.2-3.5,20.6-11.9,41.1c0.1,2.5,0.7,5.4,2.5,8.4c3.5,5.9,5.9,21.2,2.4,27.1s2.4-5.9-2.4-9.4
	c-3.8-2.8-10.6,0.4-13.1-2.5c-2,4-4,7.5-5.7,10.4c0.2,1.3,0.6,2.6,1.2,3.8c2.4,4.7,14.1,15.3-4.7,1.2c-5.9-10.6,16.5-40,12.9-47.1
	c-3.5-7.1-3.5-17.7-7.1-10.6c-3.5,7.1,8.2,21.2-1.2,12.9s2.4-36.5,5.9-50.6c3.5-14.1,16.5-20,25.9-28.2s10.6-16.5,12.9-23.5
	c4.7-8.2-12.9-20,0.2-12c7.6,4.7,23.5-6,32.5-10.7c9-4.6,32.1,16.7,38.4,14c2.7-1.2,6.2-0.4,9.3,0.8c2.6,1,5,2.5,6.4,3.4l0.4,1.5
	c0,0-39.9,28.9-47.7,31.8C199.4,111.2,150,146.5,150,146.5z"/>
<path class="st5" d="M287.6,152.7c7,1.2,26.9,41,29.3,53.8c2.3,12.9-18.7,38.6-29.3,35.1c-10.5-3.5-37.4-26.9-35.1-33.9
	S280.6,151.5,287.6,152.7z"/>
<ellipse class="st6" cx="234.7" cy="177.7" rx="17.7" ry="24.1"/>
<ellipse class="st6" cx="325.3" cy="177.7" rx="15.1" ry="20.6"/>
<ellipse class="st5" cx="238.8" cy="176.5" rx="8.8" ry="17.1"/>
<ellipse class="st5" cx="328.2" cy="177.8" rx="7.6" ry="14.8"/>
<path class="st6" d="M259.4,277.2c0,0-8.2-22.4-11.8-20c-3.5,2.4-8.2,18.8-8.2,18.8L259.4,277.2z"/>
<path class="st6" d="M285.3,279.5c0,0,8.2-22.4,11.8-20c3.5,2.4,8.2,18.8,8.2,18.8L285.3,279.5z"/>
<path class="st5" d="M308.9,277.3c1.5-2-81.1-6.5-101.3,0.4c0,0,42.6,3.7,50.8,3.3C266.6,280.6,305,282.2,308.9,277.3z"/>
<path class="st4" d="M274.7,291.3c2.6-0.4,25.9,14.1,29.4,16.5c3.5,2.4,15.3,11.8,15.3,18.8c0,7.1-16.5,27.1-17.7,34.1
	s-7.1,22.4-2.4,25.9c4.7,3.5-15.3-1.2-16.5-8.2c-1.2-7.1-17.7-28.2-18.8-28.2c-1.2,0-7.1,7.1-1.2,12.9c5.9,5.9-16.5,0-16.5-7.1
	c0-7.1-15.3-25.9-9.4-40C242.9,301.9,267.7,292.4,274.7,291.3z"/>
<path class="st6" d="M318.7,154c22.3-1.4,32.4-28,37.9-34.3c5.5-6.2,16-81.2,10.9-88s-48.6,69.2-53.3,69.5
	c-4.7,0.3-27.7,8.8-26.5,26.5S296.4,155.4,318.7,154z"/>
<path class="st4" d="M272.4,121.8c4.7,2.4,3.5,16.5-1.2,21.2c-4.7,4.7-16.5,16.5-10.6,22.4c5.9,5.9-3.5-9.4,8.2-14.1
	s22.4-5.9,25.9-10.6c3.5-4.7,3.5-37.7,1.2-37.7c-2.4,0-20-1.2-23.5,3.5C268.8,111.2,272.4,121.8,272.4,121.8z"/>
<path class="st3" d="M295.9,103c-8.2-3.5-11.9-0.6-18.5,0.9c6.8,4.1,15.1,6.7,16.1,14.3c1.8,9.9-1.2,19.1-6.9,27.1
	c3.7-1.3,6.6-2.7,8.1-4.7C298.2,135.9,304.1,106.5,295.9,103z"/>
<path class="st6" d="M258.2,148.9c21.6-8.8,23.3-37.4,26.7-45.1c3.5-7.8-9.6-82.5-16.8-87.1c-7.2-4.7-26.4,81.8-31,83.7
	c-4.6,1.8-30.9,31.6-27.6,36.6C212.9,141.9,236.6,157.7,258.2,148.9z"/>
<path class="st3" d="M319.4,326.6c0-7.1-11.8-16.5-15.3-18.8c-3.5-2.4-26.8-16.9-29.4-16.5c-2.8,0.5-8.3,2.2-14.3,5
	c13.9,9.3,32.5,12.1,41.4,24.4c8.2,10.6-10.6,18.8-18.8,28.2c-1.2,2.4,9.4-3.5,16.5-2.4c-6.3,7-16.4,14.9-20,23.9
	c1.9,3.2,3.3,6,3.6,7.9c1.2,7.1,21.2,11.8,16.5,8.2c-4.7-3.5,1.2-18.8,2.4-25.9S319.4,333.6,319.4,326.6z"/>
<path class="st3" d="M278.2,321.9c-1.2-3.5-4.7-5.9-7.1-9.4c5.9,21.2-17.7,22.4-27.1,35.3c-0.1,0.1-0.2,0.2-0.2,0.4
	c1.5,3.3,2.6,6,2.6,7.9c0,7.1,22.4,12.9,16.5,7.1c-5.7-5.7-0.3-12.6,1.1-12.9C264.1,349,281.8,332.5,278.2,321.9z"/>
<path class="st4" d="M235.9,92.4l-17.7,17.7c0,0-6,1.7-11.4,3c-2.6,1.7-39.2,25.2-41.5,25.2c-0.6,0-1.4-0.2-2-0.5
	c-4,6-8.5,12.8-9.7,14.6c-2.4,3.5-16.5-3.5-11.8-2.4s8.2-7.1,9.4-12.9c1-5,12.1-7.4,16.9-8.8c4.7-2.4,9.6-5.2,6.6-8.9
	c-4.7-5.9,4.7-16.5,4.7-14.1s1.2,7.1,5.9,9.4c3.2,1.6,11.2-1.6,16.4-3.9c2-4.7,0-12.5,9.5-17.3C222.9,87.7,235.9,92.4,235.9,92.4z"
	/>
</svg>
