<?xml version="1.0" encoding="utf-8"?>
<!-- Generator: Adobe Illustrator 21.1.0, SVG Export Plug-In . SVG Version: 6.00 Build 0)  -->
<svg version="1.1" id="Layer_1" xmlns="http://www.w3.org/2000/svg" xmlns:xlink="http://www.w3.org/1999/xlink" x="0px" y="0px"
	 viewBox="0 0 515 443" style="enable-background:new 0 0 515 443;" xml:space="preserve">
<style type="text/css">
	.st0{fill:#6B726B;}
	.st1{fill:#445126;}
	.st2{fill:#8F998F;}
	.st3{fill:#6C893E;}
	.st4{fill:#485E2A;}
	.st5{fill:#E4EFE5;}
	.st6{fill:#424C42;}
</style>
<path class="st0" d="M471.2,387.8c-3.5-10.6-10.6-77.7-65.9-131.8c-55.3-54.1-173-91.8-258.9-84.7C88.5,176,34.3,225.8,0.1,269.2
	v174h471.8C472.7,416.7,472.8,392.5,471.2,387.8z"/>
<path class="st1" d="M157,107.7c-15.3,0-57.7,3.5-68.2,27.1c-10.6,23.5,4.7,49.4-24.7,44.7c-29.4-4.7,12.9,15.3,20,10.6
	c7.1-4.7-12.9,20-42.4,21.2c-17,0.7-31.9,10-41.6,20.6v160.7c7.8,2,14.6,5.1,18.1,10.5c10.6,16.5-5.9-15.3,14.1-34.1
	s27.1-70.6,48.2-49.4c21.2,21.2,10.6,34.1,17.7,0c7.1-34.1,15.3-64.7,29.4-47.1c14.1,17.7,14.1,29.4,23.5,12.9
	c9.4-16.5,30.6-31.8,30.6-31.8L157,107.7z"/>
<path class="st1" d="M420.6,261.9c0.5,0.3,1.5,0.4,2.8,0.4C420.7,261.3,419.5,261.1,420.6,261.9z"/>
<path class="st1" d="M464.2,343c0.9,2.2,4.7,4.5,8.5,6.1C466.5,338.4,462.6,339.2,464.2,343z"/>
<path class="st1" d="M484.2,378.3c-4.1-14.1-8.1-23.4-11.5-29.2c-3.8-1.5-7.6-3.9-8.5-6.1c-1.5-3.8,2.4-4.7,8.5,6.1
	c6.5,2.6,13,2.9,5.6-3.7c-11.8-10.6,2.4-18.8,7.1-31.8c4.7-12.9-11.8-28.2-30.6-37.7c-12.8-6.4-25.5-11.7-31.3-13.7
	c-1.3,0-2.3-0.1-2.8-0.4c-1.1-0.8,0.1-0.5,2.8,0.4c9.1-0.1,33.6-6.3,9-6.3c-28.2,0-3.5-37.7-18.8-63.5
	c-15.3-25.9-50.6-35.3-67.1-38.8c0,0-38.8,100-38.8,111.8c0,11.8,5.9,11.8,16.5,7.1c10.6-4.7,12.9,14.1,7.1,30.6
	c-5.9,16.5,34.1,48.2,25.9,31.8c-8.2-16.5,0-10.6,11.8-17.7c11.8-7.1,16.5,37.7,16.5,63.5c0,25.9,25.9,42.4,21.2,34.1
	c-4.7-8.2,1.2-23.5,10.6-32.9c8-8,19.4,29,32,61.3h38C490.6,427.4,491.5,403.4,484.2,378.3z"/>
<path class="st2" d="M340,371c-4,8-86,36-100,44c-7.5,4.3-37.2,17.1-61.3,28.1H347C351.8,416.3,347.9,355.1,340,371z"/>
<path class="st2" d="M131,396c-5-21-12.5-66.5-15-56c-4,17-26,43-37,62c-6.4,11-21.8,27.7-32.5,41.1H132
	C134.1,426.6,133.9,408.2,131,396z"/>
<path class="st3" d="M206.2,79.1c6.2-4.4,22.3-24.4,26.7-27.4s29.2-11.6,36.7-10.2c7.5,1.4,38.2-3.3,26.7,0.2
	c-11.5,3.6-3.8,6-12.2,9.9c-8.4,3.9,9.8,7.1,16.4,4.6s23,2.1,24.4,3.8c1.4,1.7-12.2,18.1-12.2,18.1l-60.2-4.6L206.2,79.1z"/>
<path class="st4" d="M215.4,86.3c0,0,6.1-26.7,25-28.4s37.5,6.2,44.3,9.5s44.8,0.9,47.7-2.1c0,0-5.4,8.4-15.1,8.2
	c-9.7-0.3-2.9,13.9,6,10.7c8.9-3.2,28.8-0.4,34.2,12.9c5.3,13.3-2.6,31.9,6.2,33.6s15.2-2.2,15.2-2.2s-10,9.4-13.7,9.1
	c-3.7-0.4-14.2-4.1-16-1.3c-1.8,2.8,19.5,28.2,21.8,38.6s-10.6,22.8-6.9,34.1s-9.7-0.3-9.7-11.1s-37.7-83.2-37.7-83.2L215.4,86.3z"
	/>
<path class="st3" d="M363.7,130.6c-8.8-1.7-0.9-20.3-6.2-33.6c-5.3-13.3-25.3-16.1-34.2-12.9c-1.5,0.5-2.9,0.6-4.2,0.3
	c1.3,2.2,3.4,3.9,5.3,4.3c8.6,0.5,18.3,0.8,22.3,8.3c5.8,10.7,2.6,27.7,8.1,38.3c3.7,0.5,8.3,1.9,10.5,2.1
	c3.7,0.4,13.7-9.1,13.7-9.1S372.6,132.3,363.7,130.6z"/>
<path class="st3" d="M230.3,72.2c24.5,1.8,46.2,1.8,69.9,11c5.8,2.1,9.6-0.3,13.4-2.9c-1.9-3.2-1.4-7.1,3.7-6.9
	c9.7,0.3,15.1-8.2,15.1-8.2c-2.9,3.1-41,5.5-47.7,2.1s-25.4-11.3-44.3-9.5c-8.3,0.8-14.2,6.4-18.1,12.5
	C224.8,72,227.7,72.7,230.3,72.2z"/>
<path class="st2" d="M128.5,173c-1.3-76.8,86.8-109.6,156.7-92.4s75.6,105.2,68.3,117.1c-7.3,11.9-35.5,61.8-26.5,93.7
	c-8.5,17.7-100.2,39.9-106.4,33.9C214.3,319.5,129.8,249.9,128.5,173z"/>
<polygon class="st4" points="320,112.6 349.7,132.5 339.9,104.6 320.4,98 "/>
<path class="st4" d="M273.4,103.6L313,86.4c0,0-20.5-11.1-35.3-12.7c-14.8-1.5-31.4-0.3-31.4-0.3l-7.8,13.8L273.4,103.6z"/>
<path class="st4" d="M245.6,108.6c-9.4,0.9-50.2,18.3-55.4,21.9c-1.2,0.8-3.2,3.1-5.4,6.2c-1.3,5.1-1.6,9.5,0.7,10.5
	c4,1.8-4.1,3.6-9,2c-5.5,9.3-10,19-7.6,20.9c4.5,3.8,23.4,2.1,19.9,13.7c-3.5,11.6,1.5-4-8.2-4.2c-9.7-0.3-15.6,5.9-14.3,11.6
	c1.3,5.7,16.1,18.1,18.2,22.5c1.5,2.9-1.2,12.3-2.4,19.4c1.4,1.8,2.9,4,4.5,6.6c5.7,9.6,4.2,24.4,6.5,34.7
	c2.3,10.3-8.8-12.5-12.6-8.1c-1.5,1.7-5.2,0-9.2-3.2c-1,14.5,0.1,33-3.8,26.6c-5.7-9.6-31.5-28-39.5-37c-8-9.1,7.4-42.6,2.5-48.8
	c-5-6.1-7.3-16.5-9.2-8.8c-1.9,7.7,12.6,18.9,1.6,12.9c-11-6-1.5-50.3-1.5-50.3l24.7-35.6c0,0-2.4-16.3-1.6-23.7
	c2.8-9.1-17-16.7-2.4-11.8c8.5,2.9,21.6-11,29.4-17.4c7.8-6.5,34.9,9.4,40.5,5.4c2.4-1.7,6-1.8,9.3-1.2c2.8,0.5,5.5,1.3,7,1.9
	l0.7,1.4L245.6,108.6z"/>
<path class="st3" d="M141.8,167.7c3-0.5,1.1,20.9-2.8,42.7c0.7,2.4,1.9,5.1,4.2,7.6c4.7,5,10.3,19.4,8.1,25.9s1-6.3-4.3-8.7
	c-4.3-2-10.3,2.7-13.3,0.4c-1.1,4.3-2.2,8.2-3.4,11.4c0.5,1.2,1.1,2.4,2,3.5c3.3,4.1,17.1,11.9-4.3,2.2c-8-9.1,7.4-42.6,2.5-48.8
	c-5-6.1-7.3-16.5-9.2-8.8c-1.9,7.7,12.6,18.9,1.6,12.9c-11-6-5.6-36.1-5.2-50.7c0.4-14.5,11.8-23.1,19.2-33.2s6.8-18.4,7.6-25.8
	c2.8-9.1-17-16.7-2.4-11.8c8.5,2.9,21.6-11,29.4-17.4c7.8-6.5,34.9,9.4,40.5,5.4c2.4-1.7,6-1.8,9.3-1.2c2.8,0.5,5.5,1.3,7,1.9
	l0.7,1.4c0,0-32.7,36.9-39.7,41.4C182.4,122.5,141.8,167.7,141.8,167.7z"/>
<ellipse transform="matrix(0.9764 -0.2161 0.2161 0.9764 -33.3997 54.2235)" class="st5" cx="231.2" cy="179.8" rx="17.7" ry="24.1"/>
<ellipse transform="matrix(0.9764 -0.2161 0.2161 0.9764 -27.0769 72.8798)" class="st5" cx="319.7" cy="160.2" rx="15.1" ry="20.6"/>
<ellipse transform="matrix(0.9764 -0.2161 0.2161 0.9764 -32.87 54.9894)" class="st6" cx="235" cy="177.8" rx="8.8" ry="17.1"/>
<ellipse transform="matrix(0.9764 -0.2161 0.2161 0.9764 -26.8878 73.491)" class="st6" cx="322.6" cy="159.7" rx="7.6" ry="14.8"/>
<path class="st6" d="M235,279c0,0,25-18,38-21s32-3,36-2s12,12,12,12s-23,5-33,6S235,279,235,279z"/>
<path class="st5" d="M276.4,274.6c0,0-11.5-20.9-14.6-18c-3.1,2.9-5.3,19.8-5.3,19.8L276.4,274.6z"/>
<path class="st5" d="M302.3,273.1c0,0,4.8-23.3,8.7-21.5c3.8,1.8,11,17.4,11,17.4L302.3,273.1z"/>
<path class="st6" d="M325.3,267.4C326.5,265.2,224,280,224,280s43.9,0.2,52-1.4S322.2,272.8,325.3,267.4z"/>
<path class="st4" d="M295.2,281.8c2.5-0.7,27.2,11.4,31,13.4c3.8,2,16.4,10.1,17.2,17.2s-13.6,28.6-14,35.8c-0.4,7.1-4.7,23,0.3,26
	c5,3-15.3,0.4-17.2-6.5c-1.9-6.9-20.5-26.3-21.6-26.2c-1.2,0.1-6.3,7.7,0.2,13c6.5,5.2-16.4,1.7-17.1-5.3
	c-0.7-7-17.9-24.2-13.5-38.8C264.7,295.6,288.3,283.7,295.2,281.8z"/>
<path class="st5" d="M308.1,138.5c21.5-6.2,25.6-34.4,29.6-41.7c4-7.3-1.9-82.7-8.4-88.2c-6.5-5.5-32.5,78-37,79.3
	c-4.5,1.3-25.1,14.6-20.1,31.6S286.7,144.7,308.1,138.5z"/>
<path class="st4" d="M255.9,117.1c5.1,1.3,7,15.3,3.4,20.9c-3.6,5.6-12.5,19.6-5.5,24.1c7,4.5-5.5-8.4,5-15.6
	c10.5-7.1,20.6-10.6,23-15.9c2.4-5.4-4.7-37.5-7-37s-19.8,3.2-22.2,8.5C250.2,107.5,255.9,117.1,255.9,117.1z"/>
<path class="st3" d="M274.8,93.6C266,92,263,95.6,257,98.6c7.6,2.5,16.1,3.3,18.9,10.5c3.9,9.3,2.9,18.9-0.9,27.9
	c3.3-2.1,5.8-4,6.9-6.4C284.2,125.3,283.6,95.3,274.8,93.6z"/>
<path class="st5" d="M247.9,146.6c19.2-13.2,14.6-41.5,16.4-49.9c1.7-8.3-27.2-78.4-35.3-81.5s-8.1,85.6-12.2,88.4
	c-4,2.8-23.4,37.5-19,41.7C202.2,149.5,228.7,159.9,247.9,146.6z"/>
<path class="st3" d="M343.4,312.4c-0.7-7-13.4-15.2-17.2-17.2c-3.8-2-28.4-14.1-31-13.4c-2.7,0.7-8,3.1-13.7,6.5
	c14.8,7.9,33.5,8.7,43.7,20c9.3,9.7-8.6,19.8-15.8,30c-0.9,2.5,9-4.5,16.1-4c-5.6,7.7-14.8,16.5-17.5,25.8c2.2,3,3.9,5.7,4.4,7.5
	c1.9,6.9,22.3,9.5,17.2,6.5c-5-3-0.8-18.8-0.3-26C329.7,341,344.1,319.4,343.4,312.4z"/>
<path class="st3" d="M301.9,311.9c-1.5-3.4-5.3-5.4-8-8.6c8,20.5-15.3,24.1-23.3,37.9c-0.1,0.1-0.1,0.3-0.2,0.4
	c1.8,3.1,3.2,5.7,3.4,7.6c0.7,7,23.6,10.6,17.1,5.3c-6.3-5.1-1.6-12.5-0.3-13C290.6,340.4,306.5,322.1,301.9,311.9z"/>
<path class="st4" d="M213.9,96.3l-13.4,21c0,0-5.5,3-10.5,5.4c-2.1,2.2-32.9,33.1-35.1,33.6c-0.6,0.1-1.4,0.1-2.1,0
	c-2.6,6.7-5.5,14.3-6.4,16.4c-1.5,4-16.8,0.1-12,0.2c4.8,0.1,6.5-8.7,6.4-14.7c-0.1-5.1,10.2-9.9,14.6-12.2c4-3.4,8.2-7.1,4.6-10.1
	c-5.9-4.7,1-17.1,1.5-14.8s2.7,6.6,7.8,7.9c3.4,0.9,10.6-4,15.2-7.4c0.9-5-2.7-12.2,5.5-18.9C200.3,94.5,213.9,96.3,213.9,96.3z"/>
<path class="st2" d="M257,185c-2,1-13-2-20,4s-22,15-19,17s25,4,25,4l12-15L257,185z"/>
<path class="st2" d="M345.1,168.8c-2,0.5-11.3-4.1-18.6,0c-7.3,4.1-22.3,9.5-20,11.8c2.3,2.3,21.6,8,21.6,8l13.4-11.3L345.1,168.8z"
	/>
<path class="st6" d="M277.5,143.9c7.1-0.4,35.1,34.2,40.2,46.2c5.1,12.1-9.9,41.7-21,40.6c-11-1.2-42.4-18.2-41.6-25.5
	C255.9,197.9,270.4,144.3,277.5,143.9z"/>
<path class="st2" d="M439.8,338c-4.9-2.3-67.5-10.5-67.5-10.5c-2.2,3.9,4.7,44.3,0.1,57.1c-3.4,9.3-15.3,37.2-19.6,58.5h113.7
	C466.8,427.1,444.7,340.2,439.8,338z"/>
<path class="st2" d="M368.3,341.2c-7.7-9.8-7.3-38-11.1-42.5c-3.8-4.6-9.3-36.5-0.5-36.8c8.8-0.3,17.5-0.5,20.3,6
	c2.7,6.5,7.6,25.5,10,25.6c2.4,0.1,18.7-26.3,18.9-36.3c0.3-9.9,2.8-31.2,6.7-31.6c3.9-0.4,20.9,0.1,21.2,6.5s-7.2,35.1-7.8,38.5
	c-0.6,3.5-2.4,16.3,2.6,14c4.9-2.4,12.7-19.5,13.7-21.5s5.2-31.2,10.1-33.5c4.9-2.4,18.9,1.5,20.3,6s-4.7,30.2-5.3,36.1
	c-0.6,5.9-13.8,26.5-12.4,28.5c1.4,2,13.1-5.3,17.1-8.3s11-14,14-17s3-16,6-18s17,3,18,8s-8,27-13,33s-27,22-27,22
	s-16,52.8-30.2,56.4c-14.2,3.6-26.2-4.2-27.6-6.2c-1.4-2-7.4-14.1-11.8-15.2C396.1,353.8,378.6,354.4,368.3,341.2z"/>
<path class="st2" d="M368.3,341.2c-7.7-9.8-7.3-38-11.1-42.5c-3.8-4.6-9.3-36.5-0.5-36.8c8.8-0.3,17.5-0.5,20.3,6
	c2.7,6.5,7.6,25.5,10,25.6c2.4,0.1,18.7-26.3,18.9-36.3c0.3-9.9,2.8-31.2,6.7-31.6c3.9-0.4,20.9,0.1,21.2,6.5s-7.2,35.1-7.8,38.5
	c-0.6,3.5-2.4,16.3,2.6,14c4.9-2.4,12.7-19.5,13.7-21.5s5.2-31.2,10.1-33.5c4.9-2.4,18.9,1.5,20.3,6s-4.7,30.2-5.3,36.1
	c-0.6,5.9-13.8,26.5-12.4,28.5c1.4,2,13.1-5.3,17.1-8.3s11-14,14-17s3-16,6-18s17,3,18,8s-8,27-13,33s-18,18-22,24
	s-21,50.8-35.2,54.4c-14.2,3.6-26.2-4.2-27.6-6.2c-1.4-2-7.4-14.1-11.8-15.2C396.1,353.8,378.6,354.4,368.3,341.2z"/>
<path class="st0" d="M468,318c-11,8-12,22-22,32c-10,9-27,2-38-3s-26-1-39-7c-0.4,0-1.1-0.2-1.8-0.5c0.3,0.6,0.7,1.1,1.1,1.6
	c10.4,13.2,27.9,12.7,32.2,13.8c4.3,1.1,10.4,13.2,11.8,15.2s13.4,9.8,27.6,6.2S471,328,475,322s17-18,22-24c1.9-2.3,4.4-6.9,6.7-12
	C493.4,297.8,481.7,307.6,468,318z"/>
<path class="st6" d="M354.2,261c-2.7,1.8-2.6,14.1-1.5,24.4C359.4,281.6,357,269.8,354.2,261z"/>
</svg>
