<svg width="911" height="296" viewBox="0 0 911 296" fill="none" xmlns="http://www.w3.org/2000/svg">
<rect x="48" y="54" width="5.82337" height="202.362" rx="2.91169" fill="white"/>
<rect x="63.2864" y="81.6611" width="5.82337" height="147.04" rx="2.91169" fill="white"/>
<rect x="78.5728" y="111.506" width="5.82337" height="87.3506" rx="2.91169" fill="white"/>
<rect x="93.859" y="81.6611" width="5.82337" height="147.04" rx="2.91169" fill="white"/>
<rect x="109.145" y="62.7354" width="5.82337" height="184.892" rx="2.91169" fill="white"/>
<rect x="124.432" y="54" width="5.82337" height="202.362" rx="2.91169" fill="white"/>
<rect x="139.718" y="54" width="5.82337" height="202.362" rx="2.91169" fill="white"/>
<rect x="155.004" y="69.2861" width="5.82337" height="171.789" rx="2.91169" fill="white"/>
<rect x="170.291" y="54" width="5.82337" height="202.362" rx="2.91169" fill="white"/>
<rect x="185.577" y="75.8379" width="5.82337" height="158.687" rx="2.91169" fill="white"/>
<rect x="200.864" y="97.6753" width="5.82337" height="115.012" rx="2.91169" fill="white"/>
<rect x="216.15" y="120.969" width="5.82337" height="68.4246" rx="2.91169" fill="white"/>
<rect x="231.436" y="97.6753" width="5.82337" height="115.012" rx="2.91169" fill="white"/>
<rect x="246.723" y="73.6538" width="5.82337" height="163.054" rx="2.91169" fill="white"/>
<rect x="262.009" y="94.7637" width="5.82337" height="120.835" rx="2.91169" fill="white"/>
<rect x="277.295" y="84.5728" width="5.82337" height="141.217" rx="2.91169" fill="white"/>
<rect x="292.582" y="94.7637" width="5.82337" height="120.835" rx="2.91169" fill="white"/>
<rect x="307.868" y="84.5728" width="5.82337" height="141.217" rx="2.91169" fill="white"/>
<rect x="323.154" y="54" width="5.82337" height="202.362" rx="2.91169" fill="white"/>
<rect x="338.441" y="81.6611" width="5.82337" height="147.04" rx="2.91169" fill="white"/>
<rect x="353.727" y="111.506" width="5.82337" height="87.3506" rx="2.91169" fill="white"/>
<rect x="369.013" y="81.6611" width="5.82337" height="147.04" rx="2.91169" fill="white"/>
<rect x="384.3" y="62.7354" width="5.82337" height="184.892" rx="2.91169" fill="white"/>
<rect x="399.586" y="54" width="5.82337" height="202.362" rx="2.91169" fill="white"/>
<rect x="414.872" y="54" width="5.82337" height="202.362" rx="2.91169" fill="white"/>
<rect x="430.159" y="69.2861" width="5.82337" height="171.789" rx="2.91169" fill="white"/>
<rect x="445.445" y="54" width="5.82337" height="202.362" rx="2.91169" fill="white"/>
<rect x="460.731" y="75.8379" width="5.82337" height="158.687" rx="2.91169" fill="white"/>
<rect x="476.018" y="97.6753" width="5.82337" height="115.012" rx="2.91169" fill="white"/>
<rect x="491.304" y="120.969" width="5.82337" height="68.4246" rx="2.91169" fill="white"/>
<rect x="506.591" y="97.6753" width="5.82337" height="115.012" rx="2.91169" fill="white"/>
<rect x="521.877" y="73.6538" width="5.82337" height="163.054" rx="2.91169" fill="white"/>
<rect x="537.163" y="94.7637" width="5.82337" height="120.835" rx="2.91169" fill="white"/>
<rect x="552.45" y="84.5728" width="5.82337" height="141.217" rx="2.91169" fill="white"/>
<rect x="567.736" y="94.7637" width="5.82337" height="120.835" rx="2.91169" fill="white"/>
<rect x="583.022" y="84.5728" width="5.82337" height="141.217" rx="2.91169" fill="white"/>
<rect x="598.309" y="54" width="5.82337" height="202.362" rx="2.91169" fill="white"/>
<rect x="613.595" y="81.6611" width="5.82337" height="147.04" rx="2.91169" fill="white"/>
<rect x="628.881" y="111.506" width="5.82337" height="87.3506" rx="2.91169" fill="white"/>
<rect x="644.168" y="81.6611" width="5.82337" height="147.04" rx="2.91169" fill="white"/>
<rect x="659.454" y="62.7354" width="5.82337" height="184.892" rx="2.91169" fill="white"/>
<rect x="674.74" y="54" width="5.82337" height="202.362" rx="2.91169" fill="white"/>
<rect x="690.027" y="54" width="5.82337" height="202.362" rx="2.91169" fill="white"/>
<rect x="705.313" y="69.2861" width="5.82337" height="171.789" rx="2.91169" fill="white"/>
<rect x="720.599" y="54" width="5.82337" height="202.362" rx="2.91169" fill="white"/>
<rect x="735.886" y="75.8379" width="5.82337" height="158.687" rx="2.91169" fill="white"/>
<rect x="751.172" y="97.6753" width="5.82337" height="115.012" rx="2.91169" fill="white"/>
<rect x="766.458" y="120.969" width="5.82337" height="68.4246" rx="2.91169" fill="white"/>
<rect x="781.745" y="97.6753" width="5.82337" height="115.012" rx="2.91169" fill="white"/>
<rect x="797.031" y="73.6538" width="5.82337" height="163.054" rx="2.91169" fill="white"/>
<rect x="812.318" y="94.7637" width="5.82337" height="120.835" rx="2.91169" fill="white"/>
<rect x="827.604" y="84.5728" width="5.82337" height="141.217" rx="2.91169" fill="white"/>
<rect x="842.89" y="94.7637" width="5.82337" height="120.835" rx="2.91169" fill="white"/>
<rect x="858.177" y="84.5728" width="5.82337" height="141.217" rx="2.91169" fill="white"/>
<g opacity="0.5">
<rect x="48" y="98" width="5.82337" height="114.362" rx="2.91169" fill="#273445"/>
<rect x="63.2864" y="113.632" width="5.82337" height="83.0977" rx="2.91169" fill="#273445"/>
<rect x="78.5728" y="130.499" width="5.82337" height="49.365" rx="2.91169" fill="#273445"/>
<rect x="93.859" y="113.632" width="5.82337" height="83.0977" rx="2.91169" fill="#273445"/>
<rect x="109.145" y="102.937" width="5.82337" height="104.489" rx="2.91169" fill="#273445"/>
<rect x="124.432" y="98" width="5.82337" height="114.362" rx="2.91169" fill="#273445"/>
<rect x="139.718" y="98" width="5.82337" height="114.362" rx="2.91169" fill="#273445"/>
<rect x="155.004" y="106.639" width="5.82337" height="97.0844" rx="2.91169" fill="#273445"/>
<rect x="170.291" y="98" width="5.82337" height="114.362" rx="2.91169" fill="#273445"/>
<rect x="185.577" y="110.341" width="5.82337" height="89.6797" rx="2.91169" fill="#273445"/>
<rect x="200.864" y="122.683" width="5.82337" height="64.9972" rx="2.91169" fill="#273445"/>
<rect x="216.15" y="135.847" width="5.82337" height="38.6692" rx="2.91169" fill="#273445"/>
<rect x="231.436" y="122.683" width="5.82337" height="64.9972" rx="2.91169" fill="#273445"/>
<rect x="246.723" y="109.107" width="5.82337" height="92.1479" rx="2.91169" fill="#273445"/>
<rect x="262.009" y="121.037" width="5.82337" height="68.2882" rx="2.91169" fill="#273445"/>
<rect x="277.295" y="115.278" width="5.82337" height="79.8067" rx="2.91169" fill="#273445"/>
<rect x="292.582" y="121.037" width="5.82337" height="68.2882" rx="2.91169" fill="#273445"/>
<rect x="307.868" y="115.278" width="5.82337" height="79.8067" rx="2.91169" fill="#273445"/>
<rect x="323.154" y="98" width="5.82337" height="114.362" rx="2.91169" fill="#273445"/>
<rect x="338.441" y="113.632" width="5.82337" height="83.0977" rx="2.91169" fill="#273445"/>
<rect x="353.727" y="130.499" width="5.82337" height="49.365" rx="2.91169" fill="#273445"/>
<rect x="369.013" y="113.632" width="5.82337" height="83.0977" rx="2.91169" fill="#273445"/>
<rect x="384.3" y="102.937" width="5.82337" height="104.489" rx="2.91169" fill="#273445"/>
<rect x="399.586" y="98" width="5.82337" height="114.362" rx="2.91169" fill="#273445"/>
<rect x="414.872" y="98" width="5.82337" height="114.362" rx="2.91169" fill="#273445"/>
<rect x="430.159" y="106.639" width="5.82337" height="97.0844" rx="2.91169" fill="#273445"/>
<rect x="445.445" y="98" width="5.82337" height="114.362" rx="2.91169" fill="#273445"/>
<rect x="460.731" y="110.341" width="5.82337" height="89.6797" rx="2.91169" fill="#273445"/>
<rect x="476.018" y="122.683" width="5.82337" height="64.9972" rx="2.91169" fill="#273445"/>
<rect x="491.304" y="135.847" width="5.82337" height="38.6692" rx="2.91169" fill="#273445"/>
<rect x="506.591" y="122.683" width="5.82337" height="64.9972" rx="2.91169" fill="#273445"/>
<rect x="521.877" y="109.107" width="5.82337" height="92.1479" rx="2.91169" fill="#273445"/>
<rect x="537.163" y="121.037" width="5.82337" height="68.2882" rx="2.91169" fill="#273445"/>
<rect x="552.45" y="115.278" width="5.82337" height="79.8067" rx="2.91169" fill="#273445"/>
<rect x="567.736" y="121.037" width="5.82337" height="68.2882" rx="2.91169" fill="#273445"/>
<rect x="583.022" y="115.278" width="5.82337" height="79.8067" rx="2.91169" fill="#273445"/>
<rect x="598.309" y="98" width="5.82337" height="114.362" rx="2.91169" fill="#273445"/>
<rect x="613.595" y="113.632" width="5.82337" height="83.0977" rx="2.91169" fill="#273445"/>
<rect x="628.881" y="130.499" width="5.82337" height="49.365" rx="2.91169" fill="#273445"/>
<rect x="644.168" y="113.632" width="5.82337" height="83.0977" rx="2.91169" fill="#273445"/>
<rect x="659.454" y="102.937" width="5.82337" height="104.489" rx="2.91169" fill="#273445"/>
<rect x="674.74" y="98" width="5.82337" height="114.362" rx="2.91169" fill="#273445"/>
<rect x="690.027" y="98" width="5.82337" height="114.362" rx="2.91169" fill="#273445"/>
<rect x="705.313" y="106.639" width="5.82337" height="97.0844" rx="2.91169" fill="#273445"/>
<rect x="720.599" y="98" width="5.82337" height="114.362" rx="2.91169" fill="#273445"/>
<rect x="735.886" y="110.341" width="5.82337" height="89.6797" rx="2.91169" fill="#273445"/>
<rect x="751.172" y="122.683" width="5.82337" height="64.9972" rx="2.91169" fill="#273445"/>
<rect x="766.458" y="135.847" width="5.82337" height="38.6692" rx="2.91169" fill="#273445"/>
<rect x="781.745" y="122.683" width="5.82337" height="64.9972" rx="2.91169" fill="#273445"/>
<rect x="797.031" y="109.107" width="5.82337" height="92.1479" rx="2.91169" fill="#273445"/>
<rect x="812.318" y="121.037" width="5.82337" height="68.2882" rx="2.91169" fill="#273445"/>
<rect x="827.604" y="115.278" width="5.82337" height="79.8067" rx="2.91169" fill="#273445"/>
<rect x="842.89" y="121.037" width="5.82337" height="68.2882" rx="2.91169" fill="#273445"/>
<rect x="858.177" y="115.278" width="5.82337" height="79.8067" rx="2.91169" fill="#273445"/>
</g>
<g opacity="0.5">
<rect x="48" y="130" width="5.82337" height="50.3622" rx="2.91169" fill="#273445"/>
<rect x="63.2864" y="136.884" width="5.82337" height="36.5941" rx="2.91169" fill="#273445"/>
<rect x="78.5728" y="144.312" width="5.82337" height="21.7391" rx="2.91169" fill="#273445"/>
<rect x="93.859" y="136.884" width="5.82337" height="36.5941" rx="2.91169" fill="#273445"/>
<rect x="109.145" y="132.174" width="5.82337" height="46.0144" rx="2.91169" fill="#273445"/>
<rect x="124.432" y="130" width="5.82337" height="50.3622" rx="2.91169" fill="#273445"/>
<rect x="139.718" y="130" width="5.82337" height="50.3622" rx="2.91169" fill="#273445"/>
<rect x="155.004" y="133.804" width="5.82337" height="42.7535" rx="2.91169" fill="#273445"/>
<rect x="170.291" y="130" width="5.82337" height="50.3622" rx="2.91169" fill="#273445"/>
<rect x="185.577" y="135.435" width="5.82337" height="39.4926" rx="2.91169" fill="#273445"/>
<rect x="200.864" y="140.87" width="5.82337" height="28.6231" rx="2.91169" fill="#273445"/>
<rect x="216.15" y="146.667" width="5.82337" height="17.0289" rx="2.91169" fill="#273445"/>
<rect x="231.436" y="140.87" width="5.82337" height="28.6231" rx="2.91169" fill="#273445"/>
<rect x="246.723" y="134.891" width="5.82337" height="40.5796" rx="2.91169" fill="#273445"/>
<rect x="262.009" y="140.145" width="5.82337" height="30.0724" rx="2.91169" fill="#273445"/>
<rect x="277.295" y="137.609" width="5.82337" height="35.1448" rx="2.91169" fill="#273445"/>
<rect x="292.582" y="140.145" width="5.82337" height="30.0724" rx="2.91169" fill="#273445"/>
<rect x="307.868" y="137.609" width="5.82337" height="35.1448" rx="2.91169" fill="#273445"/>
<rect x="323.154" y="130" width="5.82337" height="50.3622" rx="2.91169" fill="#273445"/>
<rect x="338.441" y="136.884" width="5.82337" height="36.5941" rx="2.91169" fill="#273445"/>
<rect x="353.727" y="144.312" width="5.82337" height="21.7391" rx="2.91169" fill="#273445"/>
<rect x="369.013" y="136.884" width="5.82337" height="36.5941" rx="2.91169" fill="#273445"/>
<rect x="384.3" y="132.174" width="5.82337" height="46.0144" rx="2.91169" fill="#273445"/>
<rect x="399.586" y="130" width="5.82337" height="50.3622" rx="2.91169" fill="#273445"/>
<rect x="414.872" y="130" width="5.82337" height="50.3622" rx="2.91169" fill="#273445"/>
<rect x="430.159" y="133.804" width="5.82337" height="42.7535" rx="2.91169" fill="#273445"/>
<rect x="445.445" y="130" width="5.82337" height="50.3622" rx="2.91169" fill="#273445"/>
<rect x="460.731" y="135.435" width="5.82337" height="39.4926" rx="2.91169" fill="#273445"/>
<rect x="476.018" y="140.87" width="5.82337" height="28.6231" rx="2.91169" fill="#273445"/>
<rect x="491.304" y="146.667" width="5.82337" height="17.0289" rx="2.91169" fill="#273445"/>
<rect x="506.591" y="140.87" width="5.82337" height="28.6231" rx="2.91169" fill="#273445"/>
<rect x="521.877" y="134.891" width="5.82337" height="40.5796" rx="2.91169" fill="#273445"/>
<rect x="537.163" y="140.145" width="5.82337" height="30.0724" rx="2.91169" fill="#273445"/>
<rect x="552.45" y="137.609" width="5.82337" height="35.1448" rx="2.91169" fill="#273445"/>
<rect x="567.736" y="140.145" width="5.82337" height="30.0724" rx="2.91169" fill="#273445"/>
<rect x="583.022" y="137.609" width="5.82337" height="35.1448" rx="2.91169" fill="#273445"/>
<rect x="598.309" y="130" width="5.82337" height="50.3622" rx="2.91169" fill="#273445"/>
<rect x="613.595" y="136.884" width="5.82337" height="36.5941" rx="2.91169" fill="#273445"/>
<rect x="628.881" y="144.312" width="5.82337" height="21.7391" rx="2.91169" fill="#273445"/>
<rect x="644.168" y="136.884" width="5.82337" height="36.5941" rx="2.91169" fill="#273445"/>
<rect x="659.454" y="132.174" width="5.82337" height="46.0144" rx="2.91169" fill="#273445"/>
<rect x="674.74" y="130" width="5.82337" height="50.3622" rx="2.91169" fill="#273445"/>
<rect x="690.027" y="130" width="5.82337" height="50.3622" rx="2.91169" fill="#273445"/>
<rect x="705.313" y="133.804" width="5.82337" height="42.7535" rx="2.91169" fill="#273445"/>
<rect x="720.599" y="130" width="5.82337" height="50.3622" rx="2.91169" fill="#273445"/>
<rect x="735.886" y="135.435" width="5.82337" height="39.4926" rx="2.91169" fill="#273445"/>
<rect x="751.172" y="140.87" width="5.82337" height="28.6231" rx="2.91169" fill="#273445"/>
<rect x="766.458" y="146.667" width="5.82337" height="17.0289" rx="2.91169" fill="#273445"/>
<rect x="781.745" y="140.87" width="5.82337" height="28.6231" rx="2.91169" fill="#273445"/>
<rect x="797.031" y="134.891" width="5.82337" height="40.5796" rx="2.91169" fill="#273445"/>
<rect x="812.318" y="140.145" width="5.82337" height="30.0724" rx="2.91169" fill="#273445"/>
<rect x="827.604" y="137.609" width="5.82337" height="35.1448" rx="2.91169" fill="#273445"/>
<rect x="842.89" y="140.145" width="5.82337" height="30.0724" rx="2.91169" fill="#273445"/>
<rect x="858.177" y="137.609" width="5.82337" height="35.1448" rx="2.91169" fill="#273445"/>
</g>
</svg>
