<svg width="14" height="15" viewBox="0 0 14 15" fill="none" xmlns="http://www.w3.org/2000/svg">
<path d="M2.49999 4.1C3.39999 3.4 4.39999 3 5.49999 2.8C6.49999 2.7 7.39999 2.8 8.29999 3.2L7.79999 4.3L9.69999 3.9L11.6 3.5L10.6 1.8L9.69999 0L9.19999 1.1C7.79999 0.7 6.39999 0.7 5.09999 1.1C3.79999 1.5 2.59999 2.3 1.69999 3.3C0.799987 4.3 0.299987 5.5 0.0999866 6.8C-0.100013 8.1 0.0999867 9.4 0.599987 10.5C0.199987 9.3 0.299987 8.1 0.599987 7C0.999987 5.8 1.69999 4.9 2.49999 4.1Z" fill="white"/>
<path d="M12.8 4.29999C13.2 5.49999 13.1 6.69999 12.8 7.89999C12.6 8.49999 12.4 8.99999 12.1 9.49999C11.8 9.99999 11.4 10.4 11 10.8C10.1 11.5 9.09999 12 7.99999 12.2C6.99999 12.3 5.99999 12.2 5.09999 11.9L5.59999 10.8L3.69999 11.2L1.79999 11.6L2.79999 13.3L3.79999 15L4.39999 13.8C5.79999 14.2 7.19999 14.1 8.49999 13.8C9.79999 13.4 11 12.6 11.9 11.6C12.3 11.1 12.7 10.5 13 9.89999C13.3 9.29999 13.5 8.69999 13.5 7.99999C13.5 6.79999 13.4 5.49999 12.8 4.29999Z" fill="white"/>
</svg>
