<svg width="15" height="15" viewBox="0 0 15 15" fill="none" xmlns="http://www.w3.org/2000/svg">
<path d="M14.9 8C14.9 7.9 14.8 7.7 14.8 7.6C14.7 7.1 14.4 6.7 14.2 6.3L13.4 6.8C13.7 7.3 13.9 7.8 14 8.3L14.9 8Z" fill="#A4B4B7"/>
<path d="M4.2 10.6C4 10.2 4 9.7 4 9.3H5V9.2C5 8.7 5.1 8.2 5.3 7.7L4.3 7.3C4.5 6.9 4.7 6.4 4.9 6.1L5.7 6.7C6 6.2 6.4 5.8 6.9 5.5L6.3 4.6C6.7 4.4 7.1 4.1 7.5 4L7.9 4.9C8.4 4.7 9 4.6 9.5 4.6C9.6 4.6 9.9 4.6 9.9 4.6C9.9 4.6 10 3.7 10 3.6C10.2 3.6 10.5 3.7 10.7 3.7C10 1.6 8 0 5.5 0C2.5 0 0 2.5 0 5.5C0 8.1 1.8 10.3 4.2 10.9C4.4 11.5 4.7 12 5 12.4L5.8 11.8C5.5 11.4 5.2 10.9 5.1 10.3L4.2 10.6Z" fill="#A4B4B7"/>
<path d="M14 9.3C14 9.9 13.9 10.4 13.6 10.9L14.5 11.3C14.6 11.1 14.7 10.8 14.7 10.6C14.8 10.3 14.8 9.9 14.8 9.5L14 9.3Z" fill="#A4B4B7"/>
<path d="M6 13.4C6 13.5 6 13.5 6 13.4C6 13.5 6 13.5 6 13.4C6 13.5 6 13.5 6 13.4C6 13.5 6 13.5 6 13.4C6 13.5 6 13.5 6 13.4C6 13.5 6 13.5 6 13.4C6 13.5 6 13.5 6 13.4C6 13.5 6 13.5 6 13.4C6 13.5 6 13.5 6 13.4C6 13.5 6 13.5 6 13.4C6 13.5 6 13.5 6 13.4C6 13.5 6 13.5 6 13.4C6 13.5 6 13.5 6 13.4C6 13.5 6 13.5 6 13.4C6 13.5 6 13.5 6 13.4C6 13.5 6 13.5 6 13.4C6 13.5 6 13.5 6 13.4C6 13.5 6 13.5 6 13.4C6 13.5 6 13.5 6 13.4C6 13.5 6 13.5 6 13.4C6 13.5 6 13.5 6 13.4C6.1 13.5 6.1 13.5 6 13.4C6.1 13.5 6.1 13.5 6 13.4C6.1 13.5 6.1 13.5 6 13.4C6.1 13.5 6.1 13.5 6 13.4C6.1 13.5 6.1 13.5 6 13.4C6.1 13.5 6.1 13.5 6 13.4C6.1 13.5 6.1 13.5 6 13.4C6.1 13.5 6.1 13.5 6 13.4C6.1 13.5 6.1 13.5 6 13.4C6.1 13.5 6.1 13.5 6 13.4C6.1 13.5 6.1 13.5 6 13.4C6.1 13.5 6.1 13.5 6 13.4C6.1 13.5 6.1 13.5 6 13.4C6.1 13.5 6.1 13.5 6 13.4C6.1 13.5 6.1 13.5 6 13.4C6.1 13.5 6.1 13.5 6 13.4C6.1 13.5 6.1 13.5 6 13.4C6.1 13.5 6.1 13.5 6 13.4C6.1 13.5 6.1 13.5 6 13.4C6.1 13.5 6.1 13.5 6 13.4C6.1 13.5 6.1 13.5 6 13.4C6.1 13.5 6.1 13.5 6 13.4C6.1 13.5 6.1 13.5 6 13.4C6.1 13.5 6.1 13.5 6 13.4C6.1 13.5 6.1 13.5 6 13.4C6.1 13.5 6.1 13.5 6 13.4C6.1 13.5 6.1 13.5 6.1 13.5C6.8 14 7 14.1 7.2 14.2C7.3 14.2 7.4 14.3 7.6 14.3L7.9 13.3C7.4 13.1 6.9 12.9 6.5 12.5L6 13.4Z" fill="#A4B4B7"/>
<path d="M11.8 13L12.3 13.9C12.5 13.7 12.8 13.5 13 13.3V11.9C12.7 12.3 12.3 12.7 11.8 13Z" fill="#A4B4B7"/>
<path d="M9.50001 13.7C9.40001 13.7 9.30001 13.7 9.20001 13.7L9.10001 14.7C9.20001 14.7 9.30001 14.7 9.30001 14.7C9.70001 14.7 10 14.6 10.4 14.5L10.1 13.5C10.4 13.6 9.90001 13.7 9.50001 13.7Z" fill="#A4B4B7"/>
<path d="M13.2 5.1C12.7 4.7 12.2 4.3 11.6 4.1L11.2 5C11.7 5.2 12.2 5.5 12.6 5.9L13.2 5.1Z" fill="#A4B4B7"/>
</svg>
